<svg width="209" height="128" viewBox="0 0 209 128" fill="none" xmlns="http://www.w3.org/2000/svg">
<g id="&#209;&#129;&#209;&#130;&#209;&#128;&#208;&#181;&#208;&#187;&#208;&#186;&#208;&#176; &#208;&#178;&#208;&#187;&#208;&#181;&#208;&#178;&#208;&#190;" filter="url(#filter0_i_78_17)">
<g id="Arrow 3" filter="url(#filter1_i_78_17)">
<path d="M0.921945 103.108C-0.346705 105.842 0.450652 108.906 2.70289 109.951L39.4052 126.979C41.6575 128.024 44.5117 126.655 45.7804 123.92C47.049 121.186 46.2517 118.122 43.9994 117.077L11.3751 101.941L29.7519 62.3323C31.0205 59.5979 30.2232 56.5342 27.9709 55.4892C25.7187 54.4443 22.8644 55.8139 21.5958 58.5483L0.921945 103.108ZM199.64 6.16119L3.74067 100.161L6.2593 109.839L202.158 15.8388L199.64 6.16119Z" fill="#5CFF80"/>
</g>
<circle id="Ellipse 4" cx="198" cy="11" r="10.5" fill="#D9D9D9" fill-opacity="0.7" stroke="#7A7676"/>
</g>
<defs>
<filter id="filter0_i_78_17" x="0.318665" y="0" width="208.681" height="131.33" filterUnits="userSpaceOnUse" color-interpolation-filters="sRGB">
<feFlood flood-opacity="0" result="BackgroundImageFix"/>
<feBlend mode="normal" in="SourceGraphic" in2="BackgroundImageFix" result="shape"/>
<feColorMatrix in="SourceAlpha" type="matrix" values="0 0 0 0 0 0 0 0 0 0 0 0 0 0 0 0 0 0 127 0" result="hardAlpha"/>
<feOffset dy="4"/>
<feGaussianBlur stdDeviation="2"/>
<feComposite in2="hardAlpha" operator="arithmetic" k2="-1" k3="1"/>
<feColorMatrix type="matrix" values="0 0 0 0 0 0 0 0 0 0 0 0 0 0 0 0 0 0 0.15 0"/>
<feBlend mode="normal" in2="shape" result="effect1_innerShadow_78_17"/>
</filter>
<filter id="filter1_i_78_17" x="0.318665" y="6.16119" width="201.84" height="125.169" filterUnits="userSpaceOnUse" color-interpolation-filters="sRGB">
<feFlood flood-opacity="0" result="BackgroundImageFix"/>
<feBlend mode="normal" in="SourceGraphic" in2="BackgroundImageFix" result="shape"/>
<feColorMatrix in="SourceAlpha" type="matrix" values="0 0 0 0 0 0 0 0 0 0 0 0 0 0 0 0 0 0 127 0" result="hardAlpha"/>
<feOffset dy="4"/>
<feGaussianBlur stdDeviation="2"/>
<feComposite in2="hardAlpha" operator="arithmetic" k2="-1" k3="1"/>
<feColorMatrix type="matrix" values="0 0 0 0 0 0 0 0 0 0 0 0 0 0 0 0 0 0 0.15 0"/>
<feBlend mode="normal" in2="shape" result="effect1_innerShadow_78_17"/>
</filter>
</defs>
</svg>
